<?xml version="1.0" encoding="UTF-8" standalone="no"?>
<!DOCTYPE svg PUBLIC "-//W3C//DTD SVG 1.1//EN" "http://www.w3.org/Graphics/SVG/1.1/DTD/svg11.dtd">
<svg width="100%" height="100%" viewBox="0 0 324 209" version="1.1" xmlns="http://www.w3.org/2000/svg" xmlns:xlink="http://www.w3.org/1999/xlink" xml:space="preserve" xmlns:serif="http://www.serif.com/" style="fill-rule:evenodd;clip-rule:evenodd;stroke-linejoin:round;stroke-miterlimit:2;">
    <g id="Artboard1" transform="matrix(0.294813,0,0,0.896996,-66.333,-310.361)">
        <rect x="225" y="346" width="1099" height="233" style="fill:none;"/>
        <g transform="matrix(2.2854,0,0,0.709778,-50.7171,143.712)">
            <g>
                <g transform="matrix(0.396861,0,0,0.396861,55.2343,272.44)">
                    <path d="M851.5,123.5C852.496,123.414 853.329,123.748 854,124.5C856.444,138.39 859.778,152.057 864,165.5C868.406,177.236 876.239,185.736 887.5,191C896.27,194.11 905.27,196.443 914.5,198C917.33,198.869 919.997,200.036 922.5,201.5C920.847,203.121 918.847,204.288 916.5,205C907.674,206.719 899.008,209.053 890.5,212C874.403,218.669 864.236,230.502 860,247.5C857.329,258.185 854.662,268.852 852,279.5C848.091,265.102 843.758,250.769 839,236.5C835.685,226.189 829.185,218.689 819.5,214C808.242,209.289 796.576,205.955 784.5,204C781.654,203.121 780.987,201.454 782.5,199C794.48,195.34 806.48,192.007 818.5,189C823.893,186.274 828.726,182.774 833,178.5C836.771,171.862 839.771,164.862 842,157.5C844.239,145.872 847.406,134.538 851.5,123.5Z" style="fill:rgb(169,50,215);"/>
                </g>
                <g transform="matrix(0.552752,0,0,0.552752,-20.1967,204.547)">
                    <path d="M631.5,155.5C632.117,155.611 632.617,155.944 633,156.5C636.065,171.425 640.065,186.092 645,200.5C648.715,210.214 655.215,217.381 664.5,222C677.107,226.148 689.774,229.981 702.5,233.5C701.221,235.146 699.555,236.313 697.5,237C683.921,239.303 671.254,243.97 659.5,251C652.729,257.369 647.562,264.869 644,273.5C639.945,286.799 636.279,300.132 633,313.5C630.139,300.389 626.806,287.389 623,274.5C620.148,265.955 615.648,258.455 609.5,252C596.333,245.944 582.666,241.278 568.5,238C564.413,235.563 564.746,233.563 569.5,232C583.196,229.103 596.196,224.436 608.5,218C615.479,210.879 619.979,202.379 622,192.5C625.026,180.061 628.193,167.728 631.5,155.5Z" style="fill:rgb(255,0,231);"/>
                </g>
                <g transform="matrix(0.552752,0,0,0.552752,-52.8091,200.125)">
                    <path d="M739.5,298.5C765.494,297.303 774.661,308.97 767,333.5C759.886,342.428 750.719,345.594 739.5,343C726.076,335.975 721.576,325.142 726,310.5C729.266,304.975 733.766,300.975 739.5,298.5Z" style="fill:rgb(252,38,128);"/>
                </g>
                <g transform="matrix(0.552752,0,0,0.552752,-61.1003,164.749)">
                    <path d="M772.5,671.5C773.251,612.663 773.918,553.663 774.5,494.5C775.471,492.517 776.471,490.517 777.5,488.5C803.209,455.628 835.542,431.461 874.5,416C912.028,400.2 951.028,389.533 991.5,384C1001.83,383.5 1012.16,383.334 1022.5,383.5C1045.54,457.282 1071.54,529.949 1100.5,601.5C1047.59,611.048 995.593,624.215 944.5,641C893.396,658.801 845.062,682.134 799.5,711C790.215,717.229 781.382,724.062 773,731.5C772.5,711.503 772.333,691.503 772.5,671.5Z" style="fill:rgb(241,241,241);"/>
                </g>
                <g transform="matrix(0.552752,0,0,0.552752,-61.1003,164.749)">
                    <path d="M753.5,510.5C754.448,583.498 754.615,656.498 754,729.5C752.242,727.235 750.075,725.568 747.5,724.5C742.277,719.211 736.61,714.377 730.5,710C687.459,679.813 640.792,656.48 590.5,640C537.804,622.928 484.138,609.928 429.5,601C442.058,568.661 454.225,536.161 466,503.5C478.059,466.655 489.726,429.655 501,392.5C501.846,388.766 503.346,385.432 505.5,382.5C578.002,387.725 645.335,408.892 707.5,446C718.603,455.1 729.103,464.933 739,475.5C743.831,481.826 748.165,488.492 752,495.5C752.501,500.508 753.001,505.508 753.5,510.5Z" style="fill:rgb(241,241,241);"/>
                </g>
                <g transform="matrix(0.552752,0,0,0.552752,-61.1003,164.749)">
                    <path d="M732.5,728.5C704.665,706.577 674.332,688.743 641.5,675C571.426,645.648 498.759,625.648 423.5,615C419.021,614.846 415.521,613.013 413,609.5C412.333,607.5 412.333,605.5 413,603.5C429.204,563.031 444.037,522.031 457.5,480.5C469.173,445.316 480.339,409.983 491,374.5C493.48,369.176 497.646,366.843 503.5,367.5C578.298,372.878 647.964,394.378 712.5,432C731.705,446.872 748.539,464.038 763,483.5C763.708,482.619 764.542,481.953 765.5,481.5C779.63,465.537 794.63,450.37 810.5,436C843.938,412.735 880.272,395.402 919.5,384C948.261,375.651 977.594,370.317 1007.5,368C1015.25,367.104 1022.91,367.437 1030.5,369C1031.67,370.167 1032.83,371.333 1034,372.5C1039.51,389.522 1045.01,406.522 1050.5,423.5C1069.88,481.134 1090.38,538.468 1112,595.5C1115.79,604.816 1113.29,611.65 1104.5,616C1021.67,628.417 942.332,652.417 866.5,688C832.501,703.698 800.834,723.031 771.5,746C765.083,746.87 758.749,746.536 752.5,745C745.644,739.636 738.977,734.136 732.5,728.5ZM753.5,510.5L752,495.5C748.165,488.492 743.831,481.826 739,475.5C729.103,464.933 718.603,455.1 707.5,446C645.335,408.892 578.002,387.725 505.5,382.5C503.346,385.432 501.846,388.766 501,392.5C489.726,429.655 478.059,466.655 466,503.5C454.225,536.161 442.058,568.661 429.5,601C484.138,609.928 537.804,622.928 590.5,640C640.792,656.48 687.459,679.813 730.5,710C736.61,714.377 742.277,719.211 747.5,724.5C750.075,725.568 752.242,727.235 754,729.5C754.615,656.498 754.448,583.498 753.5,510.5ZM772.5,511.5L772.5,671.5C772.333,691.503 772.5,711.503 773,731.5C781.382,724.062 790.215,717.229 799.5,711C845.062,682.134 893.396,658.801 944.5,641C995.593,624.215 1047.59,611.048 1100.5,601.5C1071.54,529.949 1045.54,457.282 1022.5,383.5C1012.16,383.334 1001.83,383.5 991.5,384C951.028,389.533 912.028,400.2 874.5,416C835.542,431.461 803.209,455.628 777.5,488.5C776.471,490.517 775.471,492.517 774.5,494.5L772.5,511.5Z" style="fill:rgb(248,39,126);"/>
                </g>
                <g transform="matrix(0.552752,0,0,0.552752,-61.1003,164.749)">
                    <path d="M1077.5,692.5C1005.86,711.41 934.523,731.243 863.5,752C850.187,756.215 837.187,761.215 824.5,767C799.707,792.949 770.04,800.949 735.5,791C722.121,784.296 710.455,775.296 700.5,764C693.397,760.411 686.063,757.411 678.5,755C643.492,744.83 608.492,734.496 573.5,724C500.404,704.188 427.404,684.188 354.5,664C342.619,658.675 339.119,649.842 344,637.5C376.281,563.94 408.281,490.273 440,416.5C443.422,409.704 448.589,407.871 455.5,411C457.152,412.47 458.152,414.303 458.5,416.5C454.627,426.787 450.961,437.12 447.5,447.5C425.001,510.505 401.835,573.172 378,635.5C459.557,651.897 540.057,672.397 619.5,697C647.662,706.936 674.995,718.602 701.5,732C719.145,743.159 736.478,754.826 753.5,767C763.154,769.575 772.487,768.909 781.5,765C802.488,746.497 825.821,731.497 851.5,720C916.673,692.956 983.673,671.623 1052.5,656C1084.8,648.84 1117.13,642.007 1149.5,635.5C1122.77,566.043 1096.6,496.376 1071,426.5C1070.06,424.273 1068.89,422.273 1067.5,420.5C1067.39,412.123 1071.39,409.29 1079.5,412C1081.96,413.458 1084.13,415.291 1086,417.5C1118.82,493.148 1151.49,568.815 1184,644.5C1186,652.181 1184.17,658.681 1178.5,664C1169.81,667.682 1160.81,670.182 1151.5,671.5C1127.07,678.861 1102.4,685.861 1077.5,692.5Z" style="fill:rgb(252,38,127);"/>
                </g>
                <g transform="matrix(0.552752,0,0,0.552752,-61.1003,164.749)">
                    <path d="M774.5,494.5C773.918,553.663 773.251,612.663 772.5,671.5L772.5,511.5C773.167,505.833 773.833,500.167 774.5,494.5Z" style="fill:rgb(232,213,222);"/>
                </g>
                <g transform="matrix(0.552752,0,0,0.552752,-61.1003,164.749)">
                    <path d="M469.5,572.5C513.39,579.977 556.724,589.811 599.5,602C633.942,612.821 666.942,626.821 698.5,644C706.482,648.901 713.982,654.401 721,660.5C723.575,668.088 721.075,670.921 713.5,669C697.67,657.576 680.67,647.91 662.5,640C614.744,619.063 565.41,603.063 514.5,592C499.767,589.317 485.1,586.317 470.5,583C465.539,580.008 465.205,576.508 469.5,572.5Z"/>
                </g>
                <g transform="matrix(0.552752,0,0,0.552752,-61.1003,164.749)">
                    <path d="M486.5,535.5C547.067,542.521 605.4,558.021 661.5,582C682.368,591.344 701.868,602.844 720,616.5C721.483,619.702 721.817,623.036 721,626.5C718.936,627.591 716.769,627.758 714.5,627C701.814,617.199 688.148,608.865 673.5,602C636.416,583.638 597.749,569.638 557.5,560C533.269,554.587 508.935,549.754 484.5,545.5C484.06,541.821 484.727,538.488 486.5,535.5Z"/>
                </g>
                <g transform="matrix(0.552752,0,0,0.552752,-61.1003,164.749)">
                    <path d="M499.5,495.5C568.255,503.697 633.255,523.864 694.5,556C703.549,561.052 712.049,566.886 720,573.5C724.719,580.943 722.885,584.776 714.5,585C705.378,576.268 695.044,569.268 683.5,564C645.606,544.81 605.94,530.143 564.5,520C542.933,514.858 521.266,510.191 499.5,506C494.38,502.598 494.38,499.098 499.5,495.5Z"/>
                </g>
                <g transform="matrix(0.552752,0,0,0.552752,-61.1003,164.749)">
                    <path d="M1021.5,495.5C1029.35,493.963 1032.51,496.963 1031,504.5C1030.1,505.701 1028.93,506.535 1027.5,507C976.039,515.293 926.373,529.627 878.5,550C854.25,560.118 831.583,572.785 810.5,588C804.171,588.668 801.671,585.834 803,579.5C810.888,573.279 819.055,567.445 827.5,562C849.822,549.339 872.822,538.006 896.5,528C937.458,513.845 979.125,503.012 1021.5,495.5Z"/>
                </g>
                <g transform="matrix(0.552752,0,0,0.552752,-61.1003,164.749)">
                    <path d="M1007.5,456.5C1011.52,455.9 1015.02,456.9 1018,459.5C1019.04,462.636 1018.21,465.136 1015.5,467C949.592,476.634 887.926,497.967 830.5,531C823.885,535.281 817.552,539.947 811.5,545C804,546.833 801.167,544 803,536.5C842.304,507.268 885.804,486.101 933.5,473C958.04,466.338 982.707,460.838 1007.5,456.5Z"/>
                </g>
                <g transform="matrix(0.552752,0,0,0.552752,-61.1003,164.749)">
                    <path d="M511.5,457.5C577.432,464.313 639.432,483.48 697.5,515C703.859,519.844 710.526,524.177 717.5,528C722.587,531.558 723.587,535.892 720.5,541C718.5,541.667 716.5,541.667 714.5,541C699.321,529.57 682.988,519.903 665.5,512C616.385,490.637 565.385,475.637 512.5,467C507.744,464.249 507.41,461.082 511.5,457.5Z"/>
                </g>
                <g transform="matrix(0.552752,0,0,0.552752,-61.1003,164.749)">
                    <path d="M993.5,416.5C1000.8,415.371 1003.97,418.371 1003,425.5C1001.79,427.049 1000.29,428.215 998.5,429C943.691,436.75 892.025,453.75 843.5,480C831.996,486.504 821.33,494.171 811.5,503C804.667,504.167 801.833,501.333 803,494.5C824.464,476.072 848.297,461.239 874.5,450C911.011,435.524 948.678,425.191 987.5,419C989.723,418.434 991.723,417.6 993.5,416.5Z"/>
                </g>
                <g transform="matrix(0.552752,0,0,0.552752,-61.1003,164.749)">
                    <path d="M524.5,417.5C571.96,424.024 617.96,436.191 662.5,454C683.748,463.196 703.248,475.029 721,489.5C722.966,495.258 721.133,498.425 715.5,499C701.134,488.147 685.8,478.814 669.5,471C624.38,450.738 577.38,436.738 528.5,429C522.924,426.393 521.59,422.56 524.5,417.5Z"/>
                </g>
                <g transform="matrix(0.552752,0,0,0.552752,-61.1003,164.749)">
                    <path d="M1045.5,575.5C1049.44,575.207 1053.27,575.54 1057,576.5C1058.18,580.274 1057.35,583.441 1054.5,586C966.833,600.663 884.666,630.163 808,674.5C803.344,672.735 801.677,669.402 803,664.5C808.735,659.714 814.901,655.548 821.5,652C875.125,622.527 931.791,600.86 991.5,587C1009.56,582.822 1027.56,578.989 1045.5,575.5Z"/>
                </g>
                <g transform="matrix(0.552752,0,0,0.552752,-61.1003,164.749)">
                    <path d="M1033.5,535.5C1037.78,534.989 1041.78,535.656 1045.5,537.5C1048.11,540.371 1048.11,543.205 1045.5,546C962.113,557.634 884.78,585.3 813.5,629C805.74,632.227 802.24,629.727 803,621.5C850.872,589.821 902.705,566.654 958.5,552C983.537,546.056 1008.54,540.556 1033.5,535.5Z"/>
                </g>
            </g>
        </g>
    </g>
</svg>
